#!OML:ASF E:\Steps\Project 1\Capture day 1\Session 2\Subject.ASF
:FULLY-SPECIFIED
:DEGREES
888
root 9.05146 22.6324 -20.897 -154.849 -1.58501 179.473
lowerback -29.9157 -0.897195 -5.38353
upperback -2.52802 -0.286929 0.0718165
thorax 12.8896 -0.786821 2.80495
lowerneck -4.98383 -3.05874 0.208621
upperneck 6.56225 -4.37978 2.4934
head 3.02514 -2.11508 0.585018
rclavicle 1.20016e-014 -5.1684e-015
rhumerus -35.5116 -14.2127 -79.3693
rradius 36.0499
rwrist 0.0493902
rhand -6.73995 -56.4191
rfingers 7.12502
rthumb 19.1209 -85.4992
lclavicle 1.20016e-014 -5.1684e-015
lhumerus -31.81 6.96441 80.2097
lradius 24.7414
lwrist -4.1856
lhand -21.0666 -13.2492
lfingers 7.12502
lthumb 5.31002 16.6643
rfemur -21.7873 6.52215 19.4168
rtibia 5.3424
rfoot -18.0712 -3.4879
rtoes -28.5516
lfemur -20.761 -9.1538 -20.3941
ltibia 8.85185
lfoot -10.6633 -0.115507
ltoes -30.0513
889
root 9.05404 22.6348 -20.8949 -154.906 -1.57812 179.46
lowerback -29.7808 -0.859028 -5.41698
upperback -2.48632 -0.218865 0.0773984
thorax 12.8718 -0.752084 2.85795
lowerneck -5.04942 -3.00883 0.13944
upperneck 6.37384 -4.29874 2.53622
head 2.97527 -2.07377 0.61449
rclavicle -1.04362e-015 -1.98785e-016
rhumerus -35.1742 -14.0203 -79.4846
rradius 35.7875
rwrist -0.245667
rhand -6.92109 -56.4996
rfingers 7.12502
rthumb 18.9467 -85.5968
lclavicle -1.04362e-015 -1.98785e-016
lhumerus -31.4767 6.60569 80.593
lradius 24.9413
lwrist -3.98307
lhand -21.2748 -13.1866
lfingers 7.12502
lthumb 5.10899 16.7318
rfemur -21.7502 6.42895 19.4329
rtibia 5.38356
rfoot -18.0957 -3.34357
rtoes -28.3183
lfemur -20.7072 -9.13813 -20.4118
ltibia 8.89452
lfoot -10.6782 -0.0752761
ltoes -31.2376
890
root 9.05773 22.6368 -20.891 -154.911 -1.58827 179.499
lowerback -29.6581 -0.851915 -5.41965
upperback -2.54375 -0.224303 0.0885016
thorax 12.7523 -0.752854 2.87032
lowerneck -5.33249 -3.0976 0.0473239
upperneck 6.60887 -4.43082 2.63849
head 3.11685 -2.13413 0.651819
rclavicle -8.62228e-015 1.98785e-014
rhumerus -35.128 -13.8841 -79.5938
rradius 35.7496
rwrist -0.305994
rhand -6.99715 -56.3004
rfingers 7.12502
rthumb 18.8736 -85.4048
lclavicle -8.62228e-015 1.98785e-014
lhumerus -31.376 6.4615 80.7633
lradius 25.251
lwrist -4.10086
lhand -21.1891 -12.8513
lfingers 7.12502
lthumb 5.19176 17.0651
rfemur -21.7992 6.44864 19.4837
rtibia 5.44986
rfoot -18.116 -3.28234
rtoes -28.0196
lfemur -20.7413 -9.17563 -20.3218
ltibia 8.94568
lfoot -10.7665 -0.00239373
ltoes -31.5306
891
root 9.06343 22.6374 -20.8815 -154.887 -1.60935 179.497
lowerback -29.4171 -0.816745 -5.43115
upperback -2.68277 -0.203184 0.0417854
thorax 12.4841 -0.740104 2.83561
lowerneck -5.25844 -3.06664 0.0938285
upperneck 6.54957 -4.39708 2.7006
head 3.08254 -2.11603 0.666877
rclavicle -1.61513e-015 -1.86858e-014
rhumerus -35.4077 -14.0011 -79.6599
rradius 36.1105
rwrist -0.244901
rhand -7.19431 -56.3854
rfingers 7.12502
rthumb 18.6839 -85.5081
lclavicle -1.61513e-015 -1.86858e-014
lhumerus -31.4418 6.25406 80.8578
lradius 25.7644
lwrist -4.23887
lhand -21.082 -12.8797
lfingers 7.12502
lthumb 5.29521 17.0342
rfemur -21.9282 6.56261 19.4584
rtibia 5.54554
rfoot -18.1002 -3.41027
rtoes -27.9003
lfemur -20.856 -9.19378 -20.2483
ltibia 9.00027
lfoot -10.8112 -0.00727627
ltoes -30.7907
892
root 9.06966 22.6397 -20.8784 -154.629 -1.37273 179.051
lowerback -29.6442 -0.901284 -5.98197
upperback -2.73181 -0.131066 -0.0861156
thorax 12.5128 -0.743464 3.01746
lowerneck -5.2271 -3.01889 0.19732
upperneck 6.42278 -4.32992 2.64408
head 3.02774 -2.08276 0.634902
rclavicle 1.0958e-014 -2.46493e-014
rhumerus -35.4156 -14.0272 -79.7585
rradius 36.3275
rwrist -0.30374
rhand -7.28098 -56.3827
rfingers 7.12502
rthumb 18.6006 -85.5135
lclavicle 1.0958e-014 -2.46493e-014
lhumerus -31.3884 5.93036 81.0606
lradius 26.3035
lwrist -3.98954
lhand -21.0229 -13.0982
lfingers 7.12502
lthumb 5.35226 16.8142
rfemur -22.3492 6.6561 18.8091
rtibia 5.69599
rfoot -18.0677 -3.55924
rtoes -27.9198
lfemur -21.1706 -9.22025 -20.7325
ltibia 9.05638
lfoot -10.8253 0.0297206
ltoes -30.5976
893
root 9.07098 22.637 -20.8838 -154.478 -1.38873 179.032
lowerback -29.9313 -0.924339 -6.00827
upperback -2.70184 -0.139082 -0.0938529
thorax 12.6736 -0.756814 3.01611
lowerneck -5.22714 -3.03851 0.19473
upperneck 6.26182 -4.35209 2.69997
head 2.97485 -2.09256 0.653433
rclavicle -4.77083e-015 -7.55382e-015
rhumerus -35.2528 -13.995 -79.8711
rradius 36.2867
rwrist -0.339337
rhand -7.06266 -56.2713
rfingers 7.12502
rthumb 18.8106 -85.3818
lclavicle -4.77083e-015 -7.55382e-015
lhumerus -31.2036 5.63554 81.2802
lradius 26.5608
lwrist -3.8065
lhand -21.0756 -13.2126
lfingers 7.12502
lthumb 5.30136 16.7011
rfemur -22.4725 6.50799 18.8159
rtibia 5.6882
rfoot -18.0791 -3.44989
rtoes -27.9612
lfemur -21.3023 -9.26462 -20.7412
ltibia 9.05131
lfoot -10.8119 0.0714843
ltoes -31.4725
894
root 9.07194 22.6331 -20.8882 -154.392 -1.54848 179.188
lowerback -30.1194 -0.930795 -5.82616
upperback -2.67719 -0.202028 -0.0472226
thorax 12.7932 -0.781262 2.9418
lowerneck -5.31901 -3.12606 0.133583
upperneck 6.14992 -4.46336 2.76723
head 2.95943 -2.14605 0.680173
rclavicle -6.01324e-015 5.1684e-015
rhumerus -35.0841 -13.9717 -79.9591
rradius 36.0769
rwrist -0.187925
rhand -6.82191 -56.0921
rfingers 7.12502
rthumb 19.0421 -85.1799
lclavicle -6.01324e-015 5.1684e-015
lhumerus -31.0368 5.33622 81.5264
lradius 26.7737
lwrist -3.59858
lhand -21.226 -12.8991
lfingers 7.12502
lthumb 5.15612 17.0182
rfemur -22.4511 6.30522 19.0952
rtibia 5.57683
rfoot -18.0902 -3.25697
rtoes -27.8026
lfemur -21.364 -9.28075 -20.5358
ltibia 9.00137
lfoot -10.7365 0.0174279
ltoes -32.1663
895
root 9.07467 22.6315 -20.8843 -154.331 -1.63086 179.195
lowerback -30.177 -0.959084 -5.82362
upperback -2.66055 -0.235292 -0.0391356
thorax 12.8407 -0.797472 2.93576
lowerneck -5.10471 -3.0642 0.195772
upperneck 5.86475 -4.36586 2.71123
head 2.81734 -2.10166 0.660651
rclavicle -5.06901e-015 -3.97569e-016
rhumerus -34.8143 -13.9677 -80.0307
rradius 35.6612
rwrist 0.055872
rhand -6.70592 -55.8688
rfingers 7.12502
rthumb 19.1536 -84.9456
lclavicle -5.06901e-015 -3.97569e-016
lhumerus -30.8316 4.94117 81.7985
lradius 27.0105
lwrist -3.26679
lhand -21.2917 -12.7004
lfingers 7.12502
lthumb 5.09274 17.2184
rfemur -22.4917 6.22716 19.1344
rtibia 5.50852
rfoot -18.0634 -3.16732
rtoes -27.428
lfemur -21.4549 -9.29414 -20.4931
ltibia 8.9985
lfoot -10.6836 -0.0688199
ltoes -31.8311
896
root 9.07758 22.6326 -20.879 -154.332 -1.63745 179.152
lowerback -30.1348 -0.968081 -5.89228
upperback -2.63782 -0.219672 -0.0394662
thorax 12.846 -0.791906 2.9795
lowerneck -4.98557 -3.04321 0.190852
upperneck 5.62775 -4.32199 2.68024
head 2.71352 -2.08293 0.656644
rclavicle 8.57259e-015 -1.63003e-014
rhumerus -34.5931 -13.9977 -80.0578
rradius 35.3824
rwrist 0.179719
rhand -6.64441 -55.8686
rfingers 7.12502
rthumb 19.2128 -84.9395
lclavicle 8.57259e-015 -1.63003e-014
lhumerus -30.6392 4.71512 82.0263
lradius 27.247
lwrist -2.9834
lhand -21.3354 -13.1518
lfingers 7.12502
lthumb 5.05053 16.768
rfemur -22.4985 6.20436 19.0892
rtibia 5.46815
rfoot -18.0217 -3.14778
rtoes -27.2338
lfemur -21.4663 -9.34672 -20.5121
ltibia 8.9899
lfoot -10.6695 -0.0505474
ltoes -31.3854
